<svg width="27" height="27" viewBox="0 0 27 27" fill="none" xmlns="http://www.w3.org/2000/svg">
<circle cx="13.5" cy="13.5" r="12.5" fill="#FF7878"/>
<circle cx="13.5" cy="13.5" r="12.5" stroke="black" stroke-width="0.5"/>
<path fill-rule="evenodd" clip-rule="evenodd" d="M12.25 13.75C12.8023 13.75 13.25 14.1977 13.25 14.75V20.75C13.25 20.8881 13.3619 21 13.5 21V21C13.6381 21 13.75 20.8881 13.75 20.75V14.75C13.75 14.1977 14.1977 13.75 14.75 13.75H20.75C20.8881 13.75 21 13.6381 21 13.5V13.5C21 13.3619 20.8881 13.25 20.75 13.25H14.75C14.1977 13.25 13.75 12.8023 13.75 12.25V6.25C13.75 6.11193 13.6381 6 13.5 6V6C13.3619 6 13.25 6.11193 13.25 6.25V12.25C13.25 12.8023 12.8023 13.25 12.25 13.25H6.25C6.11193 13.25 6 13.3619 6 13.5V13.5C6 13.6381 6.11193 13.75 6.25 13.75H12.25Z" fill="black"/>
<path d="M13.75 20.75V14.75H12.75V20.75H13.75ZM13.25 14.75V20.75H14.25V14.75H13.25ZM20.75 13.25H14.75V14.25H20.75V13.25ZM14.75 13.75H20.75V12.75H14.75V13.75ZM13.25 6.25V12.25H14.25V6.25H13.25ZM13.75 12.25V6.25H12.75V12.25H13.75ZM6.25 13.75H12.25V12.75H6.25V13.75ZM12.25 13.25H6.25V14.25H12.25V13.25ZM5.5 13.5C5.5 13.9142 5.83579 14.25 6.25 14.25V13.25C6.38807 13.25 6.5 13.3619 6.5 13.5H5.5ZM6.25 12.75C5.83579 12.75 5.5 13.0858 5.5 13.5H6.5C6.5 13.6381 6.38807 13.75 6.25 13.75V12.75ZM12.75 12.25C12.75 12.5261 12.5261 12.75 12.25 12.75V13.75C13.0784 13.75 13.75 13.0784 13.75 12.25H12.75ZM13.5 5.5C13.0858 5.5 12.75 5.83579 12.75 6.25H13.75C13.75 6.38807 13.6381 6.5 13.5 6.5V5.5ZM14.25 6.25C14.25 5.83579 13.9142 5.5 13.5 5.5V6.5C13.3619 6.5 13.25 6.38807 13.25 6.25H14.25ZM14.75 12.75C14.4739 12.75 14.25 12.5261 14.25 12.25H13.25C13.25 13.0784 13.9216 13.75 14.75 13.75V12.75ZM21.5 13.5C21.5 13.0858 21.1642 12.75 20.75 12.75V13.75C20.6119 13.75 20.5 13.6381 20.5 13.5H21.5ZM20.75 14.25C21.1642 14.25 21.5 13.9142 21.5 13.5H20.5C20.5 13.3619 20.6119 13.25 20.75 13.25V14.25ZM14.25 14.75C14.25 14.4739 14.4739 14.25 14.75 14.25V13.25C13.9216 13.25 13.25 13.9216 13.25 14.75H14.25ZM13.5 21.5C13.9142 21.5 14.25 21.1642 14.25 20.75H13.25C13.25 20.6119 13.3619 20.5 13.5 20.5V21.5ZM13.75 14.75C13.75 13.9216 13.0784 13.25 12.25 13.25V14.25C12.5261 14.25 12.75 14.4739 12.75 14.75H13.75ZM12.75 20.75C12.75 21.1642 13.0858 21.5 13.5 21.5V20.5C13.6381 20.5 13.75 20.6119 13.75 20.75H12.75Z" fill="black"/>
</svg>
