<svg width="64" height="64" viewBox="0 0 64 64" fill="none" xmlns="http://www.w3.org/2000/svg">
<mask id="path-1-outside-1_207_10271" maskUnits="userSpaceOnUse" x="4.64844" y="4.66602" width="55" height="55" fill="black">
<rect fill="white" x="4.64844" y="4.66602" width="55" height="55"/>
<path fill-rule="evenodd" clip-rule="evenodd" d="M47.9381 46.2176C51.3025 42.4442 53.347 37.4685 53.347 32.0153C53.347 20.2244 43.7886 10.666 31.9977 10.666C20.2068 10.666 10.6484 20.2244 10.6484 32.0153C10.6484 43.8062 20.2068 53.3646 31.9977 53.3646C36.0536 53.3646 39.8453 52.2336 43.0747 50.2698L49.0838 51.5588L47.9381 46.2176Z"/>
</mask>
<path fill-rule="evenodd" clip-rule="evenodd" d="M47.9381 46.2176C51.3025 42.4442 53.347 37.4685 53.347 32.0153C53.347 20.2244 43.7886 10.666 31.9977 10.666C20.2068 10.666 10.6484 20.2244 10.6484 32.0153C10.6484 43.8062 20.2068 53.3646 31.9977 53.3646C36.0536 53.3646 39.8453 52.2336 43.0747 50.2698L49.0838 51.5588L47.9381 46.2176Z" fill="white"/>
<path d="M47.9381 46.2176L43.9573 42.6683L42.1556 44.6891L42.7234 47.3362L47.9381 46.2176ZM43.0747 50.2698L44.1933 45.0551L42.1175 44.6098L40.3036 45.7129L43.0747 50.2698ZM49.0838 51.5588L47.9652 56.7735L56.028 58.503L54.2985 50.4402L49.0838 51.5588ZM48.0137 32.0153C48.0137 36.1097 46.4843 39.8341 43.9573 42.6683L51.9189 49.7669C56.1207 45.0543 58.6803 38.8273 58.6803 32.0153H48.0137ZM31.9977 15.9993C40.8431 15.9993 48.0137 23.1699 48.0137 32.0153H58.6803C58.6803 17.2789 46.7341 5.33268 31.9977 5.33268V15.9993ZM15.9818 32.0153C15.9818 23.1699 23.1524 15.9993 31.9977 15.9993V5.33268C17.2613 5.33268 5.3151 17.2789 5.3151 32.0153H15.9818ZM31.9977 48.0313C23.1524 48.0313 15.9818 40.8607 15.9818 32.0153H5.3151C5.3151 46.7517 17.2613 58.6979 31.9977 58.6979V48.0313ZM40.3036 45.7129C37.8856 47.1832 35.0489 48.0313 31.9977 48.0313V58.6979C37.0583 58.6979 41.805 57.2839 45.8458 54.8267L40.3036 45.7129ZM41.9561 55.4845L47.9652 56.7735L50.2024 46.3441L44.1933 45.0551L41.9561 55.4845ZM54.2985 50.4402L53.1528 45.099L42.7234 47.3362L43.8691 52.6773L54.2985 50.4402Z" fill="white" mask="url(#path-1-outside-1_207_10271)"/>
</svg>
