<svg width="65" height="45" viewBox="0 0 65 45" fill="none" xmlns="http://www.w3.org/2000/svg">
<path fill-rule="evenodd" clip-rule="evenodd" d="M59.6548 39.0515C59.6545 39.0513 59.6543 39.0511 59.654 39.0509L52.4768 33.3421L55.2024 30.9999L62.3836 36.7118C66.0679 39.6506 63.5254 44.7656 58.4305 44.7656L13.9996 44.7656V41.5154L58.4305 41.5154C60.0232 41.5154 60.7681 39.9405 59.6548 39.0515Z" fill="#FAAC64"/>
<path d="M14.912 18.016C14.912 18.0693 14.8853 18.1173 14.832 18.16C14.7893 18.2027 14.7413 18.224 14.688 18.224H12.512V21.216C12.512 21.3547 12.4427 21.424 12.304 21.424H10.88C10.7413 21.424 10.672 21.344 10.672 21.184V13.552C10.672 13.4133 10.7413 13.344 10.88 13.344H12.304C12.4427 13.344 12.512 13.4133 12.512 13.552V16.688H14.688C14.7413 16.688 14.7893 16.7093 14.832 16.752C14.8853 16.784 14.912 16.8267 14.912 16.88V18.016ZM10.656 25.376H4.976V26.48C4.976 26.6613 5.072 26.752 5.264 26.752H10.368C10.56 26.752 10.656 26.6613 10.656 26.48V25.376ZM12.496 27.184C12.496 27.5467 12.4107 27.8133 12.24 27.984C12.0693 28.1653 11.7547 28.256 11.296 28.256H4.352C3.88267 28.256 3.56267 28.176 3.392 28.016C3.22133 27.856 3.136 27.5627 3.136 27.136V22.432C3.136 22.3787 3.15733 22.336 3.2 22.304C3.24267 22.2613 3.29067 22.24 3.344 22.24H4.752C4.80533 22.24 4.85333 22.2613 4.896 22.304C4.94933 22.336 4.976 22.3787 4.976 22.432V23.888H10.656V22.368C10.656 22.3147 10.6773 22.2667 10.72 22.224C10.7627 22.1813 10.8107 22.16 10.864 22.16H12.288C12.3413 22.16 12.3893 22.1813 12.432 22.224C12.4747 22.2667 12.496 22.3147 12.496 22.368V27.184ZM9.872 19.872C9.89333 19.968 9.872 20.0427 9.808 20.096C9.75467 20.1493 9.70133 20.1813 9.648 20.192C9.232 20.2987 8.73067 20.3947 8.144 20.48C7.55733 20.5547 6.944 20.6187 6.304 20.672C5.67467 20.7147 5.04533 20.7467 4.416 20.768C3.78667 20.7787 3.21067 20.7733 2.688 20.752C2.336 20.7307 2.05333 20.64 1.84 20.48C1.63733 20.32 1.536 20.0533 1.536 19.68V14.928C1.536 14.5547 1.61067 14.2933 1.76 14.144C1.92 13.9947 2.20267 13.92 2.608 13.92H8.24C8.38933 13.92 8.464 13.9893 8.464 14.128V15.2C8.464 15.3387 8.38933 15.408 8.24 15.408H3.664C3.568 15.408 3.49333 15.4293 3.44 15.472C3.39733 15.504 3.376 15.5787 3.376 15.696V18.8C3.376 18.9707 3.40267 19.0827 3.456 19.136C3.52 19.1893 3.65333 19.2213 3.856 19.232C4.19733 19.2533 4.592 19.2587 5.04 19.248C5.488 19.2373 5.95733 19.216 6.448 19.184C6.94933 19.152 7.44533 19.1093 7.936 19.056C8.43733 18.992 8.90667 18.9173 9.344 18.832C9.42933 18.8107 9.504 18.8107 9.568 18.832C9.632 18.8533 9.67467 18.9067 9.696 18.992L9.872 19.872ZM27.8949 28.064C27.8949 28.1173 27.8682 28.1653 27.8149 28.208C27.7615 28.2613 27.7135 28.288 27.6709 28.288H18.7269C18.3109 28.288 18.0282 28.2133 17.8789 28.064C17.7295 27.9147 17.6549 27.6693 17.6549 27.328V25.2C17.6549 24.8587 17.7242 24.6133 17.8629 24.464C18.0122 24.3147 18.2949 24.24 18.7109 24.24H25.5269C25.6122 24.24 25.6655 24.2347 25.6869 24.224C25.7082 24.2027 25.7189 24.144 25.7189 24.048V23.28C25.7189 23.1627 25.7082 23.0933 25.6869 23.072C25.6655 23.0507 25.6069 23.04 25.5109 23.04H17.8469C17.7935 23.04 17.7402 23.0187 17.6869 22.976C17.6442 22.9333 17.6229 22.8853 17.6229 22.832V21.76C17.6229 21.7067 17.6442 21.6587 17.6869 21.616C17.7402 21.5733 17.7935 21.552 17.8469 21.552H26.4229C26.8602 21.552 27.1482 21.6213 27.2869 21.76C27.4362 21.888 27.5109 22.1333 27.5109 22.496V24.656C27.5109 25.0187 27.4362 25.2693 27.2869 25.408C27.1482 25.536 26.8602 25.6 26.4229 25.6H19.6549C19.5695 25.6 19.5162 25.616 19.4949 25.648C19.4735 25.6693 19.4629 25.7227 19.4629 25.808V26.608C19.4629 26.704 19.4735 26.7573 19.4949 26.768C19.5162 26.7893 19.5749 26.8 19.6709 26.8H27.6549C27.7082 26.8 27.7615 26.816 27.8149 26.848C27.8682 26.8907 27.8949 26.944 27.8949 27.008V28.064ZM27.5909 14.656C27.5909 14.8907 27.5802 15.1627 27.5589 15.472C27.5482 15.7813 27.5269 16.112 27.4949 16.464C27.4629 16.816 27.4202 17.184 27.3669 17.568C27.3135 17.9413 27.2495 18.304 27.1749 18.656H29.4309C29.4842 18.656 29.5482 18.6827 29.6229 18.736C29.6975 18.7893 29.7349 18.848 29.7349 18.912V19.92C29.7349 19.9733 29.7082 20.0267 29.6549 20.08C29.6015 20.1333 29.5482 20.16 29.4949 20.16H15.5749C15.5109 20.16 15.4575 20.1333 15.4149 20.08C15.3722 20.0267 15.3509 19.9733 15.3509 19.92V18.912C15.3509 18.7413 15.4255 18.656 15.5749 18.656H25.4949C25.6015 18.144 25.6815 17.6107 25.7349 17.056C25.7882 16.5013 25.8149 15.9573 25.8149 15.424C25.8149 15.2747 25.7775 15.184 25.7029 15.152C25.6282 15.1093 25.5162 15.088 25.3669 15.088H17.8949C17.8415 15.088 17.7882 15.072 17.7349 15.04C17.6815 14.9973 17.6549 14.9493 17.6549 14.896V13.776C17.6549 13.712 17.6815 13.664 17.7349 13.632C17.7882 13.6 17.8415 13.584 17.8949 13.584H26.5349C26.8762 13.584 27.1375 13.68 27.3189 13.872C27.5002 14.0533 27.5909 14.3147 27.5909 14.656ZM45.0058 17.968C45.0058 18.032 44.9791 18.0853 44.9258 18.128C44.8831 18.1707 44.8351 18.192 44.7818 18.192H42.6058V21.152C42.6058 21.2053 42.5844 21.2587 42.5418 21.312C42.4991 21.3547 42.4511 21.376 42.3978 21.376H40.9738C40.9204 21.376 40.8724 21.3547 40.8298 21.312C40.7871 21.2587 40.7658 21.2 40.7658 21.136V13.552C40.7658 13.4133 40.8351 13.344 40.9738 13.344H42.3978C42.5364 13.344 42.6058 13.4133 42.6058 13.552V16.656H44.7818C44.8351 16.656 44.8831 16.6773 44.9258 16.72C44.9791 16.752 45.0058 16.7947 45.0058 16.848V17.968ZM43.0218 28.272C43.0218 28.3253 42.9951 28.3733 42.9418 28.416C42.8991 28.4693 42.8511 28.496 42.7978 28.496H34.3177C33.9018 28.496 33.6191 28.416 33.4698 28.256C33.3204 28.096 33.2458 27.8453 33.2458 27.504V25.568C33.2458 25.2267 33.3151 24.9813 33.4538 24.832C33.6031 24.6827 33.8858 24.608 34.3018 24.608H40.6218C40.7071 24.608 40.7604 24.592 40.7818 24.56C40.8031 24.528 40.8138 24.464 40.8138 24.368V23.824C40.8138 23.7067 40.8031 23.6373 40.7818 23.616C40.7604 23.584 40.7018 23.568 40.6058 23.568H33.4378C33.3844 23.568 33.3311 23.552 33.2778 23.52C33.2351 23.4773 33.2138 23.4293 33.2138 23.376V22.32C33.2138 22.2667 33.2351 22.2187 33.2778 22.176C33.3311 22.1227 33.3844 22.096 33.4378 22.096H41.5178C41.9551 22.096 42.2431 22.1707 42.3818 22.32C42.5311 22.4693 42.6058 22.7253 42.6058 23.088V24.992C42.6058 25.3653 42.5311 25.6213 42.3818 25.76C42.2431 25.8987 41.9551 25.968 41.5178 25.968H35.2458C35.1604 25.968 35.1071 25.9787 35.0858 26C35.0644 26.032 35.0538 26.0907 35.0538 26.176V26.832C35.0538 26.928 35.0644 26.9813 35.0858 26.992C35.1071 27.0133 35.1658 27.024 35.2618 27.024H42.7818C42.8458 27.024 42.8991 27.0453 42.9418 27.088C42.9951 27.1307 43.0218 27.184 43.0218 27.248V28.272ZM39.9498 19.808C39.9711 19.9253 39.9498 20.0053 39.8858 20.048C39.8218 20.0907 39.7631 20.1173 39.7098 20.128C39.2938 20.2347 38.7924 20.3307 38.2058 20.416C37.6298 20.4907 37.0271 20.5547 36.3978 20.608C35.7684 20.6507 35.1391 20.6827 34.5098 20.704C33.8804 20.7253 33.3044 20.7253 32.7818 20.704C32.4298 20.6827 32.1471 20.592 31.9338 20.432C31.7311 20.2613 31.6298 19.9893 31.6298 19.616V14.896C31.6298 14.5227 31.7044 14.2613 31.8538 14.112C32.0138 13.952 32.2964 13.872 32.7018 13.872H38.4138C38.5631 13.872 38.6378 13.9467 38.6378 14.096V15.184C38.6378 15.3227 38.5631 15.392 38.4138 15.392H33.7578C33.6618 15.392 33.5871 15.4133 33.5338 15.456C33.4911 15.488 33.4698 15.5627 33.4698 15.68V18.72C33.4698 18.9013 33.4964 19.0187 33.5498 19.072C33.6138 19.1253 33.7471 19.1573 33.9498 19.168C34.2911 19.1893 34.6911 19.1947 35.1498 19.184C35.6084 19.1627 36.0831 19.136 36.5738 19.104C37.0751 19.0613 37.5764 19.008 38.0778 18.944C38.5791 18.88 39.0431 18.8053 39.4698 18.72C39.6511 18.688 39.7578 18.752 39.7898 18.912L39.9498 19.808ZM58.3246 28.32C58.3246 28.4587 58.2553 28.528 58.1166 28.528H56.6926C56.554 28.528 56.4846 28.4587 56.4846 28.32V13.552C56.4846 13.4133 56.554 13.344 56.6926 13.344H58.1166C58.2553 13.344 58.3246 13.4133 58.3246 13.552V28.32ZM54.0046 15.744C53.9193 16.7787 53.7006 17.7547 53.3486 18.672C53.0073 19.5893 52.5486 20.4427 51.9726 21.232C51.4073 22.0213 50.7353 22.752 49.9566 23.424C49.178 24.096 48.3193 24.7093 47.3806 25.264C47.2953 25.3173 47.1993 25.3387 47.0926 25.328C46.9966 25.3067 46.922 25.2533 46.8686 25.168L46.3246 24.32C46.2713 24.2347 46.2553 24.1547 46.2766 24.08C46.298 23.9947 46.346 23.9307 46.4206 23.888C48.01 22.9493 49.2793 21.8667 50.2286 20.64C51.1886 19.4133 51.8126 18.0693 52.1006 16.608C52.1433 16.3947 52.1326 16.256 52.0686 16.192C52.0046 16.1173 51.8713 16.08 51.6686 16.08H47.1566C47.0073 16.08 46.9326 16.0053 46.9326 15.856V14.736C46.9326 14.608 47.0073 14.544 47.1566 14.544H52.8846C53.3646 14.544 53.6793 14.6453 53.8286 14.848C53.978 15.04 54.0366 15.3387 54.0046 15.744Z" fill="white"/>
</svg>